{
 "id": 377747,
 "bug_id": 109379,
 "attachment_id": 0,
 "creation_time": "2007-04-02T18:43:18Z",
 "creator": "fenner@research.att.com",
 "text": "Similar results (although now it's an infinite loop instead of a single\nerror) with the recently-committed ffmpeg-devel update.\n\nfrogbits% pwd\n/usr/ports/multimedia/ffmpeg-devel/work/ffmpeg-2007-03-31\nfrogbits% cd ../..; make package-name\nffmpeg-devel-2007.03.31\nfrogbits% cd work/ffmpeg-2007-03-31\nfrogbits% env LD_LIBRARY_PATH=libavformat:libavcodec:libavutil ./ffmpeg -i ~/tmp/Diego-2.mp4 /dev/null\nFFmpeg version SVN-rUNKNOWN, Copyright (c) 2000-2007 Fabrice Bellard, et al.\n  configuration: --cc=cc --prefix=/usr/local --make=gmake --disable-debug --enable-memalign-hack --enable-shared --enable-pp --extra-cflags=-fPIC -O2 -fno-strict-aliasing -pipe  -I/usr/local/include --extra-ldflags=-L/usr/local/lib --extra-libs=-pthread --disable-bktr --enable-gpl --enable-liba52 --enable-liba52bin --enable-libdts --enable-libfaac --enable-libfaad --enable-libfaadbin --disable-mmx --enable-libgsm --enable-libmp3lame --enable-libogg --enable-libvorbis --enable-x264 --enable-xvid\n  libavutil version: 49.4.0\n  libavcodec version: 51.40.2\n  libavformat version: 51.11.0\n  built on Apr  2 2007 10:29:11, gcc: 3.4.4 [FreeBSD] 20050518\n[aac @ 0x283c1808]FAAD library: cannot resolve faacDecGetErrorMessage in libfaad.so.0!\n[aac @ 0x283c1808]FAAD library: cannot resolve faacDecGetErrorMessage in libfaad.so.0!\n[aac @ 0x283c1808]FAAD library: cannot resolve faacDecGetErrorMessage in libfaad.so.0!\n[aac @ 0x283c1808]FAAD library: cannot resolve faacDecGetErrorMessage in libfaad.so.0!\n[aac @ 0x283c1808]FAAD library: cannot resolve faacDecGetErrorMessage in libfaad.so.0!\n[aac @ 0x283c1808]FAAD library: cannot resolve faacDecGetErrorMessage in libfaad.so.0!\n..\n[aac @ 0x283c1808]FAAD library: cannot resolve faacDecGetErrorMessage in libfaad.so.0!\n[aac @ 0x283c1808]FAAD library: cannot resolve faacDecGetErrorMessage in libfaad.so.0!\n[aac @ 0x283c1808]FAAD library: cannot resolve faacDecGetErrorMessage in libfaad.so.0!\n\nSeems stream 0 codec frame rate differs from container frame rate: 24000.00 (24000/1) -\u003e 23.98 (24000/1001)\nInput #0, mov,mp4,m4a,3gp,3g2,mj2, from '/home/fenner/tmp/Diego-2.mp4':\n  Duration: 00:42:45.1, start: 0.000000, bitrate: 1129 kb/s\n  Stream #0.0(eng): Video: mpeg4, yuv420p, 640x480, 23.98 fps(r)\n  Stream #0.1(eng): Audio: aac\nUnable for find a suitable output format for '/dev/null'\nfrogbits% \n\n(during the \"...\" I was pounding on ^C.)\n\nWhy the resistance to\na) testing a reported bug, or\nb) applying the reported fix?\n\n  Bill"
}